<svg xmlns="http://www.w3.org/2000/svg" width="143" height="10" viewBox="0 0 143 10" fill="none">
<g clip-path="url(#clip0_471_601)">
<path d="M113.016 0.0563636V1.94C113.016 1.95455 113.01 1.96909 112.997 1.98C112.985 1.99091 112.97 1.99636 112.955 1.99636H95.9465C95.7082 1.99636 95.4813 2.08727 95.3117 2.24727C95.1439 2.40727 95.0486 2.62545 95.0486 2.85273V7.93455C95.0486 7.94909 95.0543 7.96545 95.0657 7.97636C95.0772 7.98727 95.0924 7.99273 95.1096 7.99273H106.421C106.659 7.99273 106.89 7.90182 107.058 7.74182C107.228 7.58182 107.321 7.36364 107.321 7.13455V5.77091C107.321 5.75455 107.315 5.74 107.304 5.72909C107.292 5.71818 107.277 5.71091 107.26 5.71091H104.084C104.084 5.71091 104.068 5.71091 104.063 5.70727C104.055 5.70545 104.049 5.7 104.044 5.69636C104.038 5.69091 104.036 5.68545 104.032 5.68C104.028 5.67273 104.028 5.66727 104.028 5.66V4.33818C104.028 4.32364 104.034 4.31091 104.044 4.3C104.055 4.28909 104.068 4.28364 104.084 4.28364H113.01V8.85455C113.01 9.15636 112.884 9.44727 112.661 9.66182C112.438 9.87636 112.133 9.99636 111.817 9.99818H89.1192C89.104 9.99818 89.0887 9.99273 89.0773 9.98182C89.0658 9.97091 89.0601 9.95636 89.0601 9.94182V1.14545C89.0601 0.843636 89.186 0.552727 89.4109 0.338182C89.6359 0.123636 89.9409 0.00363636 90.2574 0.00363636H112.955C112.97 0.00363636 112.985 0.00909091 112.997 0.0181818C113.008 0.0272727 113.014 0.0418182 113.016 0.0563636ZM82.0422 8.05818V9.94364C82.0422 9.95818 82.0345 9.97273 82.025 9.98364C82.0136 9.99455 81.9983 10 81.9831 10H61.1408C61.1255 10 61.1103 9.99455 61.0988 9.98364C61.0874 9.97273 61.0817 9.95818 61.0817 9.94364V1.14727C61.0817 0.996364 61.1122 0.849091 61.1732 0.709091C61.2342 0.570909 61.3219 0.443636 61.4325 0.338182C61.5431 0.232727 61.6765 0.147273 61.8214 0.0909091C61.9663 0.0327273 62.1226 0.00363636 62.2809 0.00363636H67.0129C67.0282 0.00363636 67.0434 0.00909091 67.0549 0.02C67.0663 0.0309091 67.072 0.0454546 67.072 0.06V7.71455C67.072 7.79091 67.1025 7.86182 67.1597 7.91636C67.215 7.96909 67.2913 8 67.3713 8H81.985C82.0002 8 82.0155 8.00546 82.0269 8.01636C82.0383 8.02727 82.0441 8.04182 82.0441 8.05636M142.666 10H137.547C137.536 10 137.526 9.99818 137.517 9.99273C137.509 9.98727 137.501 9.98 137.496 9.97273L132.689 2.03455C132.689 2.03455 132.676 2.02 132.668 2.01455C132.659 2.00909 132.649 2.00727 132.638 2.00727H129.629C129.618 2.00727 129.608 2.00909 129.599 2.01455C129.591 2.02 129.584 2.02545 129.576 2.03455L126.015 7.91818C126.015 7.91818 126.007 7.93636 126.007 7.94727C126.007 7.95636 126.011 7.96727 126.015 7.97455C126.02 7.98364 126.028 7.99091 126.036 7.99455C126.045 8 126.055 8.00182 126.066 8.00182H133.543C133.559 8.00182 133.574 8.00727 133.585 8.01818C133.597 8.02909 133.603 8.04364 133.603 8.05818V9.94364C133.603 9.95818 133.597 9.97273 133.585 9.98364C133.574 9.99455 133.559 10 133.543 10H119.466C119.454 10 119.445 9.99818 119.435 9.99273C119.427 9.98727 119.418 9.98 119.414 9.97091C119.408 9.96182 119.406 9.95273 119.406 9.94182C119.406 9.93091 119.41 9.92182 119.414 9.91273L125.399 0.0345455C125.399 0.0345455 125.41 0.0181818 125.42 0.0127273C125.429 0.00727273 125.439 0.00545455 125.45 0.00545455H136.685C136.697 0.00545455 136.706 0.00727273 136.716 0.0127273C136.725 0.0181818 136.733 0.0254545 136.737 0.0345455L142.72 9.91273C142.72 9.91273 142.727 9.93091 142.727 9.94182C142.727 9.95273 142.723 9.96182 142.72 9.97091C142.714 9.98 142.706 9.98727 142.699 9.99273C142.689 9.99818 142.678 10 142.668 10M23.3074 0.0872727L17.3266 9.96546C17.3266 9.96546 17.3133 9.98182 17.3037 9.98727C17.2942 9.99273 17.2847 9.99455 17.2732 9.99636H6.03991C6.02847 9.99636 6.01894 9.99273 6.00941 9.98909C5.99988 9.98364 5.99225 9.97636 5.98653 9.96727L0.00762615 0.0872727C0.00762615 0.0872727 0 0.0690909 0 0.0581818C0 0.0472727 0.00190654 0.0381818 0.00762615 0.0290909C0.0133458 0.02 0.0209719 0.0127273 0.0305046 0.00727273C0.0400373 0.00363636 0.04957 0 0.0610092 0H5.17816C5.1896 0 5.19913 0.00181818 5.20866 0.00727273C5.2182 0.0127273 5.22582 0.02 5.23154 0.0290909L10.0379 7.96727C10.0379 7.96727 10.0513 7.98364 10.0589 7.98909C10.0684 7.99455 10.078 7.99636 10.0894 7.99636H13.0979C13.1075 7.99636 13.1189 7.99455 13.1284 7.98909C13.138 7.98364 13.1456 7.97636 13.1494 7.96727L17.952 0.0345455C17.952 0.0345455 17.9653 0.0181818 17.9748 0.0127273C17.9844 0.00727273 17.9939 0.00545455 18.0053 0.00545455H23.254C23.2655 0.00545455 23.275 0.00727273 23.2846 0.0127273C23.2941 0.0181818 23.3017 0.0254545 23.3074 0.0327273C23.3132 0.0418182 23.3151 0.0509091 23.3151 0.0618182C23.3151 0.0727273 23.3132 0.0818182 23.3074 0.0909091V0.0872727ZM35.698 7.93636V2.86C35.698 2.63273 35.7934 2.41455 35.9611 2.25455C36.1289 2.09455 36.3577 2.00364 36.596 2.00364H47.6139C47.6291 2.00364 47.6463 2.00909 47.6577 2.02C47.6692 2.03091 47.6749 2.04545 47.6749 2.06182V7.14364C47.6749 7.37091 47.5796 7.58909 47.4118 7.74909C47.244 7.90909 47.0152 8 46.7769 8H35.7571C35.7419 8 35.7247 7.99455 35.7133 7.98364C35.7018 7.97273 35.6961 7.95818 35.6961 7.94182V7.93818M53.6042 0.00363636H30.9069C30.7486 0.00363636 30.5942 0.0327273 30.4493 0.0909091C30.3044 0.149091 30.171 0.232727 30.0604 0.338182C29.9498 0.443636 29.8602 0.570909 29.8011 0.709091C29.7401 0.847273 29.7096 0.996364 29.7096 1.14727V9.94182C29.7096 9.95636 29.7153 9.97091 29.7267 9.98182C29.7382 9.99273 29.7534 9.99818 29.7687 9.99818H52.466C52.6224 9.99818 52.7787 9.96909 52.9236 9.91091C53.0685 9.85273 53.2 9.76909 53.3125 9.66364C53.4231 9.55818 53.5108 9.43091 53.5718 9.29273C53.6328 9.15455 53.6633 9.00546 53.6633 8.85636V0.0563636C53.6633 0.0418182 53.6557 0.0290909 53.6443 0.0181818C53.6328 0.00909091 53.6195 0.00363636 53.6042 0.00181818V0.00363636Z" fill="white" style="fill:white;fill-opacity:1;"/>
</g>
<defs>
<clipPath id="clip0_471_601">
<rect width="142.727" height="10" fill="white" style="fill:white;fill-opacity:1;"/>
</clipPath>
</defs>
</svg>